<?xml version="1.0" encoding="UTF-8" standalone="no"?>
<!-- Green octopus logo (#AED581 - titlebar green) -->

<svg
   version="1.1"
   id="svg1"
   width="3901.6694"
   height="3579.7554"
   viewBox="0 0 3901.6694 3579.7554"
   xmlns="http://www.w3.org/2000/svg">
  <g
     id="layer1"
     transform="translate(-45.902668,-1359.6602)">
    <path
       style="display:inline;fill:#AED581;fill-rule:evenodd;stroke:#AED581"
       d="m 626.42743,1861.8815 c 186.45905,-109.2989 419.03627,-134.71 635.12777,-130.5057 206.0538,4.009 418.8238,50.2794 600.3263,147.9065 135.5597,72.9152 271.2534,175.1533 339.3149,313.2137 42.4922,86.194 -12.0859,198.9267 26.1011,287.1126 27.7542,64.0932 78.7603,121.6136 139.2061,156.6068 123.0608,71.2422 275.4233,87.0038 417.6183,87.0038 142.195,0 292.518,-19.407 417.6183,-87.0038 115.4665,-62.3912 249.6187,-150.3649 278.4122,-278.4122 18.9172,-84.1263 -27.7473,-180.9707 -87.0038,-243.6106 -41.087,-43.433 -105.5748,-72.1718 -165.3073,-69.6031 -62.2109,2.6753 -142.0786,29.2303 -165.3072,87.0038 -10.2635,25.527 9.4009,56.4387 26.1011,78.3035 19.0412,24.9297 74.0167,21.1268 78.3035,52.2022 3.6539,26.487 -26.5958,53.2074 -52.2023,60.9027 -40.4398,12.1531 -92.5918,-4.3114 -121.8054,-34.8015 -51.5843,-53.8383 -73.2401,-145.9769 -52.2023,-217.5095 26.0438,-88.5539 113.8221,-158.6261 200.1088,-191.4084 73.2488,-27.8289 160.5404,-15.9767 234.9103,8.7004 96.9664,32.1751 190.6175,92.5728 252.311,174.0076 70.3349,92.8413 115.3803,214.1612 113.105,330.6144 -2.6723,136.7726 -67.0499,272.4714 -147.9065,382.8168 -98.7836,134.8104 -263.0907,206.2618 -391.5171,313.2137 -88.4704,73.677 -150.0859,87.9343 -205.2124,189.0105 -39.276,72.0138 -48.1631,129.4971 -39.4514,211.0612 8.8682,83.0293 85.8622,232.0811 156.7527,332.5588 96.0395,136.123 122.1308,191.4654 240.3216,382.525 65.7889,106.3501 91.9311,251.2821 59.7355,369.0124 -30.903,113.0038 -173.6867,181.6191 -258.9056,190.0279 -95.4165,9.4149 -113.0279,-0.7537 -201.7686,-26.644 -84.9936,-24.7971 -117.4906,-112.0759 -116.8878,-168.487 0.5083,-47.5629 42.7432,-95.6841 87.0038,-113.105 16.415,-6.4609 38.5811,-2.5094 52.2023,8.7004 19.1327,15.7456 33.7075,46.0208 26.1011,69.6031 -6.4198,19.9034 -48.6715,14.1886 -52.2023,34.8015 -4.8964,28.5849 25.4086,58.5047 52.2023,69.603 56.838,23.5431 106.9878,30.5552 157.5303,-4.5202 29.8539,-20.7179 63.6543,-49.2245 53.7571,-124.4787 -14.9968,-114.0287 -128.2634,-239.6676 -243.2846,-329.7312 -130.0142,-101.8033 -219.1409,-133.6606 -382.2607,-159.342 -91.046,-14.3342 -150.4432,38.403 -217.9237,101.1822 -73.2164,68.1155 -59.615,106.0426 -81.2496,203.6762 -17.7461,80.0854 -19.9835,168.9337 -62.7011,238.9608 -57.4111,94.1142 -137.3128,160.9387 -241.8123,196.0583 -88.012,29.5786 -214.0317,42.377 -304.0681,19.6957 -61.7419,-15.5536 -104.0187,-53.9332 -139.6513,-106.6996 -22.953,-33.9898 -35.7841,-85.142 -17.4007,-121.8053 16.2877,-32.4837 60.4221,-60.9009 95.7041,-52.2023 10.1526,2.5031 14.3706,16.0933 17.4008,26.1012 7.5637,24.9812 -12.7322,55.5183 0,78.3034 21.5943,38.6444 68.8497,68.5227 113.105,69.603 66.1769,1.6154 136.3616,-41.2544 174.0076,-95.7041 46.6494,-67.4717 51.49,-163.2983 34.8015,-243.6107 -18.0127,-86.6853 -63.506,-180.2937 -139.2061,-226.2099 -104.4102,-63.3304 -193.4946,-35.3477 -350.7554,28.876 -148.9313,60.822 -261.0257,167.7317 -414.8781,214.7347 -127.58462,38.978 -277.99715,14.8371 -403.88268,-29.3212 -87.6153,-30.7338 -167.4439,-95.2428 -210.17922,-177.6728 -44.1301,-85.1203 -55.06011,-164.4751 -21.06592,-254.1262 27.62889,-72.8642 89.87209,-145.7601 165.30724,-165.3073 40.87644,-10.5921 102.79974,-2.906 121.80533,34.8016 11.15256,22.127 -4.64018,57.2171 -26.10114,69.603 -30.55757,17.6359 -74.89932,-22.0852 -104.40457,-2.7402 -39.99934,26.2254 -45.33154,77.8889 -34.80152,124.5455 14.06098,62.3017 60.89327,128.699 121.80533,147.9065 103.34158,32.5869 232.28546,56.133 327.61808,4.6249 304.07557,-164.2916 356.45187,-442.5815 483.92057,-590.0366 76.2901,-88.2519 127.841,-91.1944 184.8433,-192.9751 51.7748,-92.4467 7.2438,-131.2568 -39.3401,-161.2543 -169.3762,-109.069 -343.1114,35.8296 -513.3224,17.4007 -151.74912,-16.43 -315.33863,-30.5452 -443.71945,-113.1049 -143.99971,-92.604 -266.50031,-238.2276 -321.91409,-400.2175 -51.6358,-150.9458 -48.33737,-329.5324 8.70038,-478.521 50.72234,-132.492 156.02051,-250.1703 278.41219,-321.9141 z M 1600.40115,2442.0989 a 102.18805,100.33008 0 1,0 204.3761,0 a 102.18805,100.33008 0 1,0 -204.3761,0 Z M 1926.80535,2280.6235 a 102.18805,100.33008 0 1,0 204.3761,0 a 102.18805,100.33008 0 1,0 -204.3761,0 Z"
       id="path1" />
  </g>
</svg>
