<svg xmlns="http://www.w3.org/2000/svg" viewBox="0 0 3901.67 3579.76">
  <g transform="translate(-45.9,-1359.66)">
    <path fill="#6200EE" d="m 626.43,1861.88 c 186.46,-109.3 419.04,-134.71 635.13,-130.51 206.05,4.01 418.82,50.28 600.33,147.91 135.56,72.92 271.25,175.15 339.31,313.21 42.49,86.19 -12.09,198.93 26.1,287.11 27.75,64.09 78.76,121.61 139.21,156.61 123.06,71.24 275.42,87 417.62,87 142.19,0 292.52,-19.41 417.62,-87 115.47,-62.39 249.62,-150.36 278.41,-278.41 18.92,-84.13 -27.75,-180.97 -87,-243.61 -41.09,-43.43 -105.57,-72.17 -165.31,-69.6 -62.21,2.68 -142.08,29.23 -165.31,87 -10.26,25.53 9.4,56.44 26.1,78.3 19.04,24.93 74.02,21.13 78.3,52.2 3.65,26.49 -26.6,53.21 -52.2,60.9 -40.44,12.15 -92.59,-4.31 -121.81,-34.8 -51.58,-53.84 -73.24,-145.98 -52.2,-217.51 26.04,-88.55 113.82,-158.63 200.11,-191.41 73.25,-27.83 160.54,-15.98 234.91,8.7 96.97,32.18 190.62,92.57 252.31,174.01 70.33,92.84 115.38,214.16 113.1,330.61 -2.67,136.77 -67.05,272.47 -147.91,382.82 -98.78,134.81 -263.09,206.26 -391.52,313.21 -88.47,73.68 -150.09,87.93 -205.21,189.01 -39.28,72.01 -48.16,129.5 -39.45,211.06 8.87,83.03 85.86,232.08 156.75,332.56 96.04,136.12 122.13,191.47 240.32,382.52 65.79,106.35 91.93,251.28 59.74,369.01 -30.9,113 -173.69,181.62 -258.91,190.03 -95.42,9.41 -113.03,-0.75 -201.77,-26.64 -84.99,-24.8 -117.49,-112.08 -116.89,-168.49 0.51,-47.56 42.74,-95.68 87,-113.1 16.42,-6.46 38.58,-2.51 52.2,8.7 19.13,15.75 33.71,46.02 26.1,69.6 -6.42,19.9 -48.67,14.19 -52.2,34.8 -4.9,28.58 25.41,58.5 52.2,69.6 56.84,23.54 106.99,30.56 157.53,-4.52 29.85,-20.72 63.65,-49.22 53.76,-124.48 -15,-114.03 -128.26,-239.67 -243.28,-329.73 -130.01,-101.8 -219.14,-133.66 -382.26,-159.34 -91.05,-14.33 -150.44,38.4 -217.92,101.18 -73.22,68.12 -59.62,106.04 -81.25,203.68 -17.75,80.09 -19.98,168.93 -62.7,238.96 -57.41,94.11 -137.31,160.94 -241.81,196.06 -88.01,29.58 -214.03,42.38 -304.07,19.7 -61.74,-15.55 -104.02,-53.93 -139.65,-106.7 -22.95,-33.99 -35.78,-85.14 -17.4,-121.81 16.29,-32.48 60.42,-60.9 95.7,-52.2 10.15,2.5 14.37,16.09 17.4,26.1 7.56,24.98 -12.73,55.52 0,78.3 21.59,38.64 68.85,68.52 113.1,69.6 66.18,1.62 136.36,-41.25 174.01,-95.7 46.65,-67.47 51.49,-163.3 34.8,-243.61 -18.01,-86.69 -63.51,-180.29 -139.21,-226.21 -104.41,-63.33 -193.49,-35.35 -350.75,28.88 -148.93,60.82 -261.03,167.73 -414.88,214.73 -127.58,38.98 -278,14.84 -403.88,-29.32 -87.62,-30.73 -167.44,-95.24 -210.18,-177.67 -44.13,-85.12 -55.06,-164.48 -21.07,-254.13 27.63,-72.86 89.87,-145.76 165.31,-165.31 40.88,-10.59 102.8,-2.91 121.81,34.8 11.15,22.13 -4.64,57.22 -26.1,69.6 -30.56,17.64 -74.9,-22.09 -104.4,-2.74 -40,26.23 -45.33,77.89 -34.8,124.55 14.06,62.3 60.89,128.7 121.81,147.91 103.34,32.59 232.29,56.13 327.62,4.62 304.08,-164.29 356.45,-442.58 483.92,-590.04 76.29,-88.25 127.84,-91.19 184.84,-192.98 51.77,-92.45 7.24,-131.26 -39.34,-161.25 -169.38,-109.07 -343.11,35.83 -513.32,17.4 -151.75,-16.43 -315.34,-30.55 -443.72,-113.1 -144,-92.6 -266.5,-238.23 -321.91,-400.22 -51.64,-150.95 -48.34,-329.53 8.7,-478.52 50.72,-132.49 156.02,-250.17 278.41,-321.91 z"/>
    <ellipse fill="#ffffff" cx="1702.59" cy="2442.1" rx="102.19" ry="100.33"/>
    <ellipse fill="#ffffff" cx="2028.99" cy="2280.62" rx="102.19" ry="100.33"/>
  </g>
</svg>
